<?xml version="1.0" encoding="UTF-8"?><svg id="Capa_1" xmlns="http://www.w3.org/2000/svg" viewBox="0 0 895.65 260.83"><defs><style>.cls-1{fill:#469ad3;}</style></defs><path class="cls-1" d="M169.65,104.85v95H22.15c-3.91,0-14.08-7.05-16.51-10.49-1.82-2.58-4.99-11.12-4.99-14.01v-70.5h169Z"/><path class="cls-1" d="M.65,27.35C2.48,9.98,13.47,1.96,30.11.81c36.87-2.54,76.73,1.88,113.91.17,6.9.74,12.47,2.66,17.68,7.34,2.54,2.28,7.95,12.21,7.95,15.03v65.5H.65c1.51-19.62-2.03-42.24,0-61.5Z"/><path class="cls-1" d="M371.65,48.85v158h-31v-9c-23.88,20.06-62.48,14.88-76.18-14.32-9.8-20.87-9.18-58.23,5.67-76.7,16.2-20.14,47.98-22.84,68.51-7.99v-50h33ZM310.38,118.09c-25.39,4.29-24.15,57.38-.55,63.08,24.98,6.03,31.94-17.74,29.71-37.71-1.85-16.53-11.36-28.38-29.16-25.37Z"/><path class="cls-1" d="M652.65,48.85v88l35-44h41l-40.83,46.34,45.82,68.66-40.03-.6-27.98-46.39c-4,1.88-12.99,11.41-12.99,15.5v31.5l-34-1V48.85h34Z"/><path class="cls-1" d="M227.65,215.85v24.5c-2.58,13.17-10.31,19.21-23.52,20.48H23.16c-16.94-1.14-26.86-16.3-20.3-32.26,2.38-5.79,11.01-12.73,17.28-12.73h207.5Z"/><path class="cls-1" d="M493.65,172.85c-5.02,34.99-52.67,45.33-80.33,30.83-28.15-14.76-34.4-50.76-24.15-78.8,16.2-44.34,82.89-48.27,101.67-4.71,1.76,4.08,5.81,18.23,5.81,22.19v14.5h-81c3.53,20.61,19.38,32.65,40.06,24.52,3.96-1.56,7.35-8.52,7.94-8.52h30ZM464.65,135.85c-3.4-28.67-42.97-28.35-47,0h47Z"/><path class="cls-1" d="M820.15,92.85l22,76.01,19.5-76.01h34c-2.4,9.15-5.34,18.23-8.29,27.21-10.44,31.79-21.31,69.63-33.95,100.05-6.75,16.24-16.03,30.32-35.23,31.77-6.61.5-13-.91-19.54-1.04v-30c12.51,7.03,24.81-2.73,26.06-15.49l-39.06-112.51h34.5Z"/><path class="cls-1" d="M601.65,125.85l-27.36,1.88c-2.69-2.82-2.52-6.5-5.59-9.44-10.03-9.6-33.77-2.94-26.93,8.94,3.28,5.69,26.81,8.79,34.1,10.89,21.63,6.23,32.89,14.13,29.53,38.96-4.95,36.55-67.07,41.24-89.98,20.78-5.26-4.7-12.69-19.27-9.14-26.08l26.71-1.98c4.15,10.1,12.16,15.16,23.17,15.11,13.75-.06,24.06-12.89,9.4-20.48-16.65-8.61-54.37-5.07-56.89-30.11-2.18-21.66,6.52-36.55,27.98-42,27.09-6.87,64.59-1.04,65.01,33.51Z"/><rect class="cls-1" x="740.65" y="48.85" width="35" height="159"/><path class="cls-1" d="M227.65,199.85h-44v-78.5c0-1.43,6.57-10.63,8.25-11.86,9.15-6.69,25.13-4.6,31.58,5.02.72,1.07,4.17,8.22,4.17,8.83v76.5Z"/></svg>